<?xml version="1.0" standalone="no"?>
<!DOCTYPE svg PUBLIC "-//W3C//DTD SVG 20010904//EN"
 "http://www.w3.org/TR/2001/REC-SVG-20010904/DTD/svg10.dtd">
<svg version="1.0" xmlns="http://www.w3.org/2000/svg"
 width="900.000000pt" height="898.000000pt" viewBox="0 0 900.000000 898.000000"
 preserveAspectRatio="xMidYMid meet">

<g transform="translate(0.000000,898.000000) scale(0.100000,-0.100000)"
fill="#000000" stroke="none">
<path d="M4575 8498 c-8 -29 -49 -567 -43 -574 2 -2 31 -5 63 -6 l60 -3 10
118 c6 68 15 121 22 125 6 4 68 3 137 -2 69 -5 132 -6 141 -2 11 4 15 16 13
38 l-3 33 -137 10 c-76 6 -142 15 -148 20 -6 7 -7 38 -2 85 l7 75 70 0 c39 0
114 -4 168 -8 l97 -9 0 29 c0 15 -4 33 -8 39 -4 7 -88 18 -207 28 -240 19
-235 19 -240 4z"/>
<path d="M4050 8480 c-30 -4 -104 -13 -165 -20 -144 -17 -159 -23 -151 -58 3
-15 17 -110 30 -212 14 -102 28 -206 32 -231 l6 -47 -33 -4 c-19 -3 -94 -22
-167 -43 -73 -20 -139 -35 -146 -32 -7 3 -22 38 -34 79 -47 170 -113 393 -117
397 -7 6 -114 -19 -119 -28 -3 -4 6 -43 20 -87 29 -93 119 -406 128 -448 6
-24 11 -27 34 -23 75 13 408 110 422 122 9 8 30 15 46 15 28 0 314 34 382 45
29 5 32 9 32 40 0 18 -5 35 -11 37 -6 2 -61 -4 -123 -14 -142 -22 -185 -22
-192 -3 -4 9 -7 48 -8 88 l-1 72 85 12 c47 6 108 12 136 12 28 1 56 7 62 14
13 16 3 67 -14 74 -7 3 -57 -2 -111 -11 -190 -29 -179 -33 -194 71 -8 57 -7
70 6 79 8 6 78 17 154 24 149 14 159 18 141 65 -10 27 -26 29 -130 15z"/>
<path d="M5141 8433 c-19 -10 -39 -30 -46 -47 -21 -49 -95 -372 -95 -411 0
-77 21 -91 217 -134 180 -40 223 -40 263 -3 26 23 35 47 66 172 72 294 73 314
8 352 -29 17 -325 88 -363 88 -9 0 -31 -8 -50 -17z m227 -97 c56 -13 105 -26
108 -29 4 -3 -6 -59 -21 -124 -15 -65 -35 -153 -45 -197 -10 -43 -23 -83 -29
-89 -7 -7 -40 -4 -108 11 -54 12 -105 22 -114 22 -43 0 -42 23 2 207 23 98 46
188 50 201 11 28 27 28 157 -2z"/>
<path d="M5752 8303 c-38 -73 -182 -457 -182 -485 0 -45 25 -67 120 -106 120
-48 250 -92 274 -92 54 0 83 43 158 235 21 55 58 139 80 188 46 97 44 109 -18
111 -36 1 -38 0 -56 -54 -33 -92 -149 -374 -161 -388 -6 -8 -20 -11 -36 -7
-55 14 -233 88 -237 99 -4 10 37 116 145 375 17 41 31 80 31 87 0 8 -15 20
-33 28 -65 27 -75 28 -85 9z"/>
<path d="M2930 8193 c-8 -3 -82 -38 -165 -79 -159 -77 -185 -100 -185 -161 0
-37 189 -392 223 -417 47 -35 90 -25 251 55 81 41 159 84 172 96 35 32 32 81
-12 167 -80 159 -158 296 -178 315 -22 20 -79 33 -106 24z m103 -263 c48 -91
90 -176 93 -190 5 -23 -3 -29 -103 -78 -59 -29 -113 -52 -120 -52 -6 0 -27 28
-46 63 -100 180 -158 299 -153 312 6 18 205 116 226 112 8 -1 55 -76 103 -167z"/>
<path d="M6374 8043 c-50 -82 -206 -318 -251 -380 -30 -41 -50 -79 -47 -87 3
-8 19 -20 36 -27 28 -11 33 -11 45 7 7 10 57 85 109 167 53 81 103 147 110
147 12 0 14 -42 14 -236 0 -134 4 -243 10 -254 10 -18 90 -70 109 -70 6 0 70
89 142 198 72 108 145 214 161 235 17 20 28 44 25 52 -8 20 -52 46 -68 40 -8
-3 -33 -38 -56 -78 -57 -97 -165 -250 -180 -255 -10 -3 -13 40 -15 190 -1 106
-3 207 -4 223 -1 17 -2 45 -3 62 -1 28 -8 37 -53 63 -29 16 -56 30 -60 30 -4
0 -15 -12 -24 -27z"/>
<path d="M2367 7886 c-21 -8 -46 -21 -55 -29 -9 -8 -79 -56 -154 -106 -75 -50
-140 -96 -143 -102 -4 -5 -1 -18 7 -28 7 -10 53 -71 102 -137 49 -65 113 -151
143 -190 57 -77 63 -94 35 -94 -9 0 -139 41 -287 90 -148 50 -279 90 -290 90
-12 0 -39 -18 -60 -41 -43 -43 -43 -39 8 -74 15 -10 199 -435 211 -488 9 -38
32 -44 62 -17 30 29 30 41 -1 104 -48 98 -47 100 49 196 l86 84 45 -12 c26 -7
63 -20 83 -29 48 -21 57 -19 105 28 23 21 46 39 52 39 18 0 348 234 368 261
27 37 16 76 -46 159 -198 266 -212 283 -244 296 -18 8 -34 14 -35 14 -2 -1
-20 -7 -41 -14z m43 -129 c95 -121 210 -287 210 -304 0 -15 -27 -38 -93 -82
-51 -33 -99 -61 -106 -61 -15 0 -22 8 -153 187 -54 73 -98 140 -98 148 0 16
177 145 200 145 8 0 26 -15 40 -33z m-520 -542 c41 -14 79 -30 84 -35 12 -12
-91 -121 -108 -114 -15 6 -77 154 -70 166 7 12 13 11 94 -17z"/>
<path d="M6915 7672 c-42 -53 -206 -234 -288 -318 -51 -53 -67 -76 -61 -87 9
-15 260 -227 300 -254 41 -27 84 -33 114 -18 30 15 265 268 306 329 30 43 30
75 2 111 -29 37 -315 275 -331 275 -6 0 -25 -17 -42 -38z m158 -155 c34 -28
74 -62 90 -73 15 -12 27 -29 27 -37 0 -18 -266 -317 -282 -317 -25 0 -188 144
-188 166 0 22 263 314 282 314 5 0 37 -24 71 -53z"/>
<path d="M4190 7431 c-25 -4 79 -5 230 -3 151 2 282 5 290 6 28 6 -475 3 -520
-3z"/>
<path d="M4085 7420 c-17 -7 -15 -9 13 -9 17 -1 32 4 32 9 0 12 -17 12 -45 0z"/>
<path d="M4768 7423 c12 -2 30 -2 40 0 9 3 -1 5 -23 4 -22 0 -30 -2 -17 -4z"/>
<path d="M4898 7413 c6 -2 18 -2 25 0 6 3 1 5 -13 5 -14 0 -19 -2 -12 -5z"/>
<path d="M3973 7393 c9 -2 23 -2 30 0 6 3 -1 5 -18 5 -16 0 -22 -2 -12 -5z"/>
<path d="M5003 7393 c9 -2 23 -2 30 0 6 3 -1 5 -18 5 -16 0 -22 -2 -12 -5z"/>
<path d="M3788 7353 c7 -3 16 -2 19 1 4 3 -2 6 -13 5 -11 0 -14 -3 -6 -6z"/>
<path d="M3645 7321 c-33 -9 -69 -22 -80 -29 -27 -16 -16 -15 35 3 23 8 52 15
64 15 22 0 54 16 46 23 -3 3 -32 -3 -65 -12z"/>
<path d="M5310 7320 c8 -5 26 -10 39 -10 32 0 24 6 -19 14 -25 4 -31 3 -20 -4z"/>
<path d="M3508 7273 c7 -3 16 -2 19 1 4 3 -2 6 -13 5 -11 0 -14 -3 -6 -6z"/>
<path d="M3385 7230 c-22 -11 -43 -20 -47 -20 -16 0 -120 -52 -114 -57 3 -3
48 13 99 36 52 22 102 41 111 41 9 0 16 5 16 10 0 15 -22 12 -65 -10z"/>
<path d="M5575 7230 c28 -12 37 -12 30 0 -3 6 -16 10 -28 9 -21 0 -21 -1 -2
-9z"/>
<path d="M5685 7190 c27 -12 43 -12 25 0 -8 5 -22 9 -30 9 -10 0 -8 -3 5 -9z"/>
<path d="M7523 7138 c-8 -18 -47 -33 -224 -85 -118 -35 -243 -69 -279 -76 -76
-15 -86 -32 -40 -71 27 -22 35 -24 53 -14 36 19 138 47 150 41 28 -12 157
-172 157 -193 0 -13 -16 -52 -35 -87 -37 -68 -37 -80 4 -117 12 -11 21 -30 21
-43 0 -28 47 -103 65 -103 7 0 45 22 86 49 205 134 343 213 359 204 8 -5 28
-33 44 -62 15 -29 34 -55 42 -58 18 -7 64 23 64 42 0 8 -52 94 -115 190 -120
181 -129 190 -176 165 -27 -15 -24 -27 21 -91 22 -32 40 -62 40 -67 0 -11
-315 -208 -341 -214 -27 -6 -18 17 142 351 44 90 79 168 79 173 0 16 -73 88
-90 88 -9 0 -21 -10 -27 -22z m-49 -126 c7 -12 -65 -153 -82 -159 -10 -4 -30
10 -59 43 -62 71 -61 75 40 104 71 20 94 23 101 12z"/>
<path d="M3125 7108 c-71 -36 -137 -78 -123 -78 3 0 38 18 78 40 40 22 76 40
79 40 3 0 17 9 31 20 35 28 26 24 -65 -22z"/>
<path d="M2947 7011 c-37 -24 -43 -31 -26 -31 8 0 28 11 44 25 35 28 23 32
-18 6z"/>
<path d="M6080 6975 c0 -2 19 -14 43 -26 l42 -21 -30 26 c-27 23 -55 34 -55
21z"/>
<path d="M2815 6920 c-38 -27 -86 -60 -105 -73 -72 -49 -280 -236 -280 -252 0
-10 9 -4 52 38 138 130 347 295 401 313 17 6 24 24 10 24 -5 0 -39 -23 -78
-50z"/>
<path d="M4022 6855 c-94 -29 -165 -100 -209 -207 -31 -77 -28 -138 10 -221
67 -147 227 -213 382 -160 100 33 182 149 192 268 4 51 1 69 -25 125 -30 67
-76 121 -124 146 -16 8 -28 18 -28 23 0 8 -117 42 -142 40 -7 0 -32 -6 -56
-14z"/>
<path d="M6290 6830 c0 -5 7 -10 16 -10 8 0 12 5 9 10 -3 6 -10 10 -16 10 -5
0 -9 -4 -9 -10z"/>
<path d="M6331 6803 c0 -5 29 -30 65 -58 90 -69 249 -229 358 -360 105 -126
196 -248 196 -263 0 -6 4 -12 8 -14 5 -1 25 -31 47 -66 21 -34 40 -60 43 -58
9 10 -138 235 -247 376 -72 93 -335 359 -391 395 -19 12 -41 30 -49 39 -14 17
-31 22 -30 9z"/>
<path d="M1098 6623 c-8 -10 -24 -33 -34 -51 -16 -29 -17 -34 -4 -42 8 -5 22
-10 32 -10 22 0 322 -400 309 -413 -7 -7 -433 -35 -553 -37 -22 0 -31 -7 -44
-37 -8 -21 -16 -49 -17 -63 -2 -20 3 -25 25 -25 15 -1 29 -3 32 -5 106 -102
370 -370 377 -382 5 -10 5 -19 0 -22 -12 -8 -410 60 -523 89 -21 5 -29 2 -38
-15 -6 -11 -10 -31 -8 -43 3 -19 13 -23 78 -33 66 -10 174 -28 305 -52 22 -4
40 -13 40 -20 0 -8 -102 -55 -239 -112 -131 -54 -242 -104 -247 -111 -10 -17
-21 -97 -15 -108 3 -5 32 -12 63 -16 81 -9 435 -72 485 -86 37 -9 44 -9 55 7
16 23 17 49 1 61 -7 6 -38 13 -68 17 -50 6 -225 37 -309 54 -44 9 -50 27 -14
40 106 40 447 182 455 190 5 5 12 38 15 73 3 35 9 69 14 74 4 6 13 23 18 38
10 26 7 31 -54 89 -36 33 -65 67 -65 75 0 8 6 29 14 46 7 18 26 62 41 100 16
37 33 71 40 77 6 5 51 10 100 12 l89 3 29 72 29 73 -38 44 c-22 24 -47 57 -56
74 l-18 30 63 103 62 104 45 0 c25 0 68 -4 96 -8 l51 -7 27 40 c37 56 35 80
-6 80 -18 1 -80 5 -138 10 -199 19 -445 40 -466 40 -11 0 -28 -8 -36 -17z
m245 -110 c43 -4 71 -11 74 -19 5 -15 -63 -134 -77 -134 -13 0 -120 142 -114
151 6 11 26 11 117 2z m-196 -570 c-9 -46 -47 -123 -60 -123 -7 0 -42 29 -77
65 -78 79 -75 85 54 85 l89 0 -6 -27z"/>
<path d="M2343 6513 c-39 -43 -70 -79 -68 -81 5 -5 145 140 145 151 0 12 -2
10 -77 -70z"/>
<path d="M8002 6464 c-28 -19 -450 -229 -479 -238 -13 -4 -23 -14 -23 -22 0
-26 40 -94 55 -94 8 0 121 53 252 119 131 65 248 121 261 125 27 9 28 25 2 75
-23 46 -40 55 -68 35z"/>
<path d="M2213 6366 c-18 -24 -33 -46 -33 -51 0 -9 79 77 80 88 1 17 -17 3
-47 -37z"/>
<path d="M4700 6399 c-70 -28 -101 -116 -63 -179 61 -104 223 -64 223 55 0 98
-76 157 -160 124z"/>
<path d="M2131 6264 c-29 -37 -26 -55 4 -21 23 25 32 47 21 47 -3 0 -14 -12
-25 -26z"/>
<path d="M7880 6172 c-251 -97 -263 -105 -262 -169 1 -46 112 -316 143 -349
18 -20 33 -24 76 -24 31 0 75 8 101 19 26 11 97 38 157 61 162 60 185 71 206
98 29 37 24 67 -31 203 -110 269 -109 269 -390 161z m247 -54 c17 -22 97 -228
91 -233 -13 -13 -391 -153 -402 -149 -11 4 -97 209 -96 231 0 7 9 17 20 23 30
16 353 139 366 140 6 0 16 -6 21 -12z"/>
<path d="M2075 6179 c-4 -6 -5 -12 -2 -15 2 -3 7 2 10 11 7 17 1 20 -8 4z"/>
<path d="M3522 6089 c-100 -50 -134 -188 -65 -269 76 -91 219 -90 284 1 35 50
39 143 8 199 -47 83 -141 111 -227 69z"/>
<path d="M2004 6075 c-9 -14 -14 -28 -11 -31 3 -3 13 8 22 25 19 37 12 41 -11
6z"/>
<path d="M1960 6005 c-7 -14 -11 -28 -7 -31 3 -3 13 8 22 25 8 17 12 31 7 31
-5 0 -15 -11 -22 -25z"/>
<path d="M4642 5956 c-51 -18 -85 -69 -90 -135 -3 -47 0 -61 19 -85 45 -57
152 -84 204 -50 29 19 55 82 55 136 0 98 -95 166 -188 134z"/>
<path d="M7050 5961 c0 -5 5 -13 10 -16 6 -3 10 -2 10 4 0 5 -4 13 -10 16 -5
3 -10 2 -10 -4z"/>
<path d="M2972 5933 c-45 -32 -304 -356 -377 -473 -34 -54 -125 -231 -125
-243 0 -7 -48 -128 -81 -202 -53 -122 -107 -416 -115 -630 -10 -254 48 -625
122 -792 8 -17 14 -34 14 -38 0 -15 76 -187 135 -306 99 -199 158 -278 369
-496 75 -78 126 -123 139 -123 42 0 380 109 437 141 22 12 41 28 44 36 6 14
-56 67 -159 136 -107 72 -331 251 -363 290 -11 13 -10 17 8 27 20 11 80 -2
105 -22 5 -4 16 -8 23 -8 8 0 78 -27 156 -60 189 -80 368 -139 442 -146 l61
-7 58 69 c60 73 106 154 136 243 25 72 24 103 -5 130 -20 19 -41 23 -152 32
-167 13 -267 38 -383 97 -103 52 -149 97 -204 198 -28 52 -32 68 -32 139 1
199 118 455 304 665 57 64 151 184 151 193 0 10 -17 9 -38 -2 -9 -5 -46 -21
-82 -36 -69 -29 -96 -41 -175 -76 -27 -12 -70 -31 -95 -42 -25 -10 -82 -30
-127 -42 -45 -13 -124 -41 -175 -63 -128 -55 -160 -60 -187 -31 -11 12 -32 59
-47 103 -21 67 -27 107 -31 233 -7 172 3 268 48 468 39 176 56 241 79 293 11
25 20 48 20 53 0 4 14 37 30 72 17 36 30 68 30 71 0 3 14 29 31 58 33 54 53
108 41 107 -4 0 -17 -7 -30 -16z"/>
<path d="M1904 5907 c-19 -30 -39 -87 -30 -87 6 0 59 111 54 115 -2 2 -13 -11
-24 -28z"/>
<path d="M7090 5904 c0 -6 7 -19 15 -30 8 -10 14 -14 14 -9 0 6 -6 19 -14 29
-8 11 -15 15 -15 10z"/>
<path d="M1836 5763 c-6 -14 -5 -15 5 -6 7 7 10 15 7 18 -3 3 -9 -2 -12 -12z"/>
<path d="M7166 5750 c4 -14 13 -36 21 -50 l14 -25 -7 25 c-4 14 -13 36 -21 50
l-14 25 7 -25z"/>
<path d="M1806 5705 c-3 -9 -6 -22 -5 -28 0 -7 5 -1 10 12 5 13 8 26 5 28 -2
2 -6 -3 -10 -12z"/>
<path d="M1770 5626 c-14 -37 -24 -82 -17 -76 9 8 37 94 32 98 -3 3 -9 -7 -15
-22z"/>
<path d="M8369 5645 c-6 -5 -424 -81 -504 -91 -67 -8 -76 -15 -66 -53 10 -34
29 -37 121 -17 155 33 305 54 315 44 7 -6 -2 -20 -26 -41 -19 -18 -93 -84
-164 -147 -199 -177 -186 -162 -179 -212 9 -56 21 -78 42 -78 9 0 89 13 177
29 88 16 212 37 275 46 63 10 118 19 123 22 10 6 9 45 -2 62 -10 16 -9 16
-376 -48 -50 -9 -65 -7 -65 8 0 4 75 76 168 158 227 205 216 192 207 250 -8
58 -28 87 -46 68z"/>
<path d="M3219 5489 c-120 -28 -219 -149 -219 -267 0 -50 40 -142 81 -187 21
-23 63 -54 94 -70 47 -23 64 -27 109 -22 86 9 187 69 225 132 11 19 28 59 37
90 18 55 17 56 -5 127 -19 58 -33 82 -76 124 -72 73 -151 96 -246 73z"/>
<path d="M7270 5481 c0 -6 4 -13 10 -16 6 -3 7 1 4 9 -7 18 -14 21 -14 7z"/>
<path d="M4450 5417 c0 -13 136 -222 210 -321 109 -148 237 -411 285 -586 44
-157 45 -162 45 -253 0 -98 -19 -169 -73 -271 -99 -184 -191 -201 -346 -61
-83 74 -178 144 -327 241 -268 174 -424 253 -424 216 0 -5 35 -56 78 -113 173
-232 244 -365 292 -555 78 -305 38 -529 -135 -754 -56 -73 -161 -168 -255
-230 -86 -58 -287 -158 -395 -196 -95 -33 -145 -61 -145 -79 0 -23 49 -54 228
-142 167 -83 174 -86 211 -75 43 13 255 145 439 272 156 108 169 116 177 108
4 -4 1 -16 -7 -27 -24 -34 -150 -162 -228 -231 -139 -124 -190 -174 -190 -187
0 -20 52 -40 173 -68 136 -31 210 -32 256 -4 29 17 235 181 251 198 3 3 32 28
65 56 150 124 337 325 452 485 82 114 235 404 272 515 47 141 64 297 58 510
-4 101 -13 211 -21 250 -75 341 -319 746 -632 1046 -105 101 -296 269 -305
269 -5 0 -9 -6 -9 -13z"/>
<path d="M1675 5355 c-4 -16 -13 -50 -20 -75 -19 -65 -35 -136 -35 -156 0 -33
10 -7 21 52 5 32 19 87 30 122 12 34 19 68 16 75 -2 6 -8 -1 -12 -18z"/>
<path d="M7391 5054 c0 -11 3 -14 6 -6 3 7 2 16 -1 19 -3 4 -6 -2 -5 -13z"/>
<path d="M4235 5005 c-78 -32 -157 -113 -174 -178 -50 -202 60 -365 262 -384
133 -12 237 50 294 174 22 48 25 65 21 132 -5 88 -26 136 -85 195 -85 86 -201
109 -318 61z"/>
<path d="M7401 4980 c1 -8 5 -26 9 -40 l8 -25 1 25 c0 14 -4 32 -9 40 -9 13
-10 13 -9 0z"/>
<path d="M7422 4830 c0 -14 2 -19 5 -12 2 6 2 18 0 25 -3 6 -5 1 -5 -13z"/>
<path d="M7432 4770 c0 -19 2 -27 5 -17 2 9 2 25 0 35 -3 9 -5 1 -5 -18z"/>
<path d="M7444 4490 c0 -63 1 -89 3 -57 2 31 2 83 0 115 -2 31 -3 5 -3 -58z"/>
<path d="M1554 4485 c0 -49 1 -71 3 -48 2 23 2 64 0 90 -2 26 -3 8 -3 -42z"/>
<path d="M727 4351 c-38 -25 -55 -51 -63 -98 -13 -82 51 -153 137 -153 106 0
169 103 121 199 -32 64 -135 92 -195 52z"/>
<path d="M8154 4351 c-34 -21 -64 -75 -64 -115 0 -78 56 -136 132 -136 63 0
101 22 129 75 30 56 20 106 -31 157 -33 34 -43 38 -86 38 -30 0 -61 -7 -80
-19z"/>
<path d="M7425 4183 c-3 -37 -12 -106 -20 -153 -18 -104 -18 -145 1 -70 15 62
38 279 31 287 -3 2 -8 -26 -12 -64z"/>
<path d="M7382 3870 c0 -14 2 -19 5 -12 2 6 2 18 0 25 -3 6 -5 1 -5 -13z"/>
<path d="M1632 3825 c0 -16 3 -39 8 -50 l9 -20 -1 20 c0 11 -4 34 -8 50 l-8
30 0 -30z"/>
<path d="M1667 3675 c3 -16 10 -39 14 -50 l8 -20 0 20 c0 11 -6 34 -14 50
l-14 30 6 -30z"/>
<path d="M958 3586 c-75 -17 -140 -34 -143 -38 -9 -9 24 -149 37 -163 7 -7 8
3 2 30 -4 22 -8 55 -8 74 -1 34 1 35 53 48 30 8 59 12 66 9 7 -2 17 -32 24
-65 7 -34 16 -61 22 -61 12 0 11 18 -3 79 -6 28 -9 53 -6 56 13 14 114 33 125
24 6 -6 16 -33 23 -62 17 -75 19 -82 29 -71 9 8 -18 138 -33 163 -10 16 -34
13 -188 -23z"/>
<path d="M7306 3605 c-3 -9 -6 -22 -5 -28 0 -7 5 -1 10 12 5 13 8 26 5 28 -2
2 -6 -3 -10 -12z"/>
<path d="M7945 3574 c-4 -16 -10 -40 -15 -54 -21 -64 -21 -79 2 -94 31 -19 80
-28 97 -17 7 5 21 37 31 72 16 59 19 64 47 67 17 2 37 -3 46 -12 13 -13 13
-22 0 -77 -8 -34 -12 -66 -10 -73 5 -15 26 56 34 115 6 53 -4 63 -75 75 -35 5
-42 3 -55 -17 -9 -13 -19 -41 -22 -61 -10 -54 -25 -71 -57 -63 -36 9 -41 27
-22 97 8 33 13 62 10 65 -3 3 -8 -8 -11 -23z"/>
<path d="M7291 3544 c0 -11 3 -14 6 -6 3 7 2 16 -1 19 -3 4 -6 -2 -5 -13z"/>
<path d="M7266 3484 c-4 -14 -5 -29 -2 -31 3 -3 8 7 12 21 3 15 4 29 1 32 -2
3 -8 -7 -11 -22z"/>
<path d="M968 3371 c-63 -20 -108 -41 -108 -48 0 -18 5 -17 98 17 46 17 96 30
112 30 32 0 38 11 18 27 -9 7 -47 -1 -120 -26z"/>
<path d="M1760 3400 c0 -8 5 -22 10 -30 9 -13 10 -13 10 0 0 8 -5 22 -10 30
-9 13 -10 13 -10 0z"/>
<path d="M7227 3383 c-4 -3 -7 -11 -7 -17 0 -6 5 -5 12 2 6 6 9 14 7 17 -3 3
-9 2 -12 -2z"/>
<path d="M7890 3366 c-5 -15 -10 -32 -10 -37 0 -5 -14 -12 -30 -16 l-31 -6 22
-23 c14 -15 29 -22 41 -18 10 3 52 -4 93 -15 86 -24 120 -26 132 -8 15 23 32
81 26 90 -8 12 -23 -13 -23 -39 0 -41 -20 -45 -111 -23 -104 27 -113 34 -98
78 14 39 4 55 -11 17z"/>
<path d="M1100 3345 c0 -5 5 -17 10 -25 5 -8 10 -10 10 -5 0 6 -5 17 -10 25
-5 8 -10 11 -10 5z"/>
<path d="M1796 3310 c7 -27 34 -71 34 -55 -1 6 -10 26 -21 45 -15 26 -18 29
-13 10z"/>
<path d="M7188 3299 c-28 -59 -48 -112 -45 -115 6 -7 68 127 65 138 -2 6 -11
-4 -20 -23z"/>
<path d="M1120 3284 c0 -28 -12 -36 -95 -64 -113 -37 -119 -40 -108 -51 6 -6
40 0 100 21 50 16 100 30 112 30 18 0 20 4 15 28 -4 15 -10 34 -15 42 -7 12
-8 10 -9 -6z"/>
<path d="M7755 3240 c-3 -6 0 -12 7 -15 141 -47 310 -96 315 -91 13 12 -13 23
-157 70 -160 51 -156 50 -165 36z"/>
<path d="M1830 3237 c0 -17 126 -253 140 -262 12 -7 -6 44 -22 63 -10 12 -30
48 -76 137 -19 38 -42 72 -42 62z"/>
<path d="M1157 3183 c4 -16 7 -41 8 -58 0 -29 -3 -31 -94 -60 -52 -17 -96 -36
-99 -43 -5 -16 2 -16 91 12 129 40 146 61 113 141 -18 42 -29 46 -19 8z"/>
<path d="M7834 3149 c-8 -14 -10 -13 86 -49 115 -44 116 -44 90 -112 -11 -31
-27 -59 -35 -62 -8 -3 -55 10 -105 29 -93 36 -134 45 -112 23 15 -15 179 -78
203 -78 11 0 28 14 39 33 22 35 56 134 49 141 -15 16 -210 83 -215 75z"/>
<path d="M7111 3129 c-7 -12 -10 -23 -8 -26 3 -3 11 5 17 17 15 28 8 35 -9 9z"/>
<path d="M7061 3042 c-17 -27 -31 -54 -31 -60 0 -7 -4 -12 -10 -12 -5 0 -10
-8 -10 -17 0 -10 3 -13 9 -7 12 12 83 144 77 144 -2 0 -18 -22 -35 -48z"/>
<path d="M1048 2983 c-82 -31 -148 -61 -148 -66 0 -6 13 -6 33 -2 17 4 43 8
57 9 14 1 32 8 41 17 19 19 165 70 182 63 14 -5 47 -81 47 -107 0 -17 -22 -29
-127 -72 -23 -10 -48 -15 -56 -12 -8 3 -23 26 -33 51 -26 63 -37 58 -15 -6 27
-81 25 -80 196 -31 33 10 5 -12 -62 -48 -40 -21 -63 -39 -63 -50 0 -23 64
-141 83 -153 18 -12 207 76 207 96 -1 20 -40 102 -46 95 -3 -3 -1 -14 5 -25
26 -48 15 -66 -64 -105 -42 -20 -84 -37 -94 -37 -19 0 -71 84 -71 114 0 11 30
30 85 56 69 32 90 38 105 30 11 -6 20 -7 20 -3 0 16 -15 31 -35 34 -16 4 -19
11 -17 38 2 19 -1 43 -7 55 -5 12 -19 42 -31 69 -11 26 -26 47 -33 47 -6 -1
-78 -26 -159 -57z"/>
<path d="M7650 2955 c7 -8 18 -15 24 -15 7 0 20 -6 30 -13 17 -12 16 -17 -13
-79 -17 -35 -31 -70 -31 -76 0 -13 69 -50 150 -82 l49 -19 25 22 c21 20 51 85
43 94 -2 2 -14 -17 -27 -42 -13 -25 -29 -45 -36 -45 -6 0 -47 15 -91 33 -66
29 -78 38 -81 60 -4 34 34 107 56 107 24 -1 151 -56 172 -75 15 -14 18 -14 30
0 10 13 2 20 -61 49 -203 93 -268 116 -239 81z"/>
<path d="M2005 2916 c33 -63 73 -122 125 -190 75 -97 88 -111 95 -104 4 4 -13
31 -39 60 -25 29 -46 58 -46 64 0 6 -9 19 -21 30 -11 10 -45 56 -75 101 -59
91 -75 107 -39 39z"/>
<path d="M6973 2902 c-11 -15 -29 -45 -41 -67 -11 -22 -29 -49 -41 -59 -21
-19 -29 -42 -11 -31 11 7 88 116 108 154 18 34 9 36 -15 3z"/>
<path d="M6784 2638 c-42 -56 -293 -311 -384 -391 -66 -58 -208 -164 -257
-192 -19 -11 -30 -21 -24 -23 13 -4 70 29 121 70 19 15 64 51 100 79 59 46
170 144 260 230 20 19 67 70 105 114 38 44 72 82 75 85 3 3 16 20 28 38 38 54
19 46 -24 -10z"/>
<path d="M7495 2679 c-4 -6 3 -20 15 -31 17 -16 24 -18 30 -8 6 9 24 11 70 6
101 -12 107 -18 68 -80 -15 -24 -29 -35 -40 -32 -27 6 -22 -7 20 -45 20 -18
31 -27 25 -19 -20 22 -16 46 19 101 l31 51 58 -6 c38 -5 60 -3 64 4 4 6 5 14
2 16 -6 7 -295 54 -329 54 -15 0 -30 -5 -33 -11z"/>
<path d="M1316 2565 c-48 -46 -85 -88 -81 -94 11 -19 43 -12 50 12 3 12 36 50
73 84 45 41 64 65 57 72 -7 6 -39 -18 -99 -74z"/>
<path d="M2240 2603 c0 -14 94 -122 119 -137 9 -6 -4 14 -29 43 -25 29 -55 65
-67 80 -12 14 -22 20 -23 14z"/>
<path d="M1453 2524 c-7 -3 -9 -12 -6 -20 3 -8 -22 -39 -68 -82 -45 -43 -70
-73 -65 -80 12 -20 36 -14 45 12 5 12 37 49 71 81 33 32 59 65 58 74 -3 16
-17 22 -35 15z"/>
<path d="M2380 2443 c0 -5 34 -39 75 -76 41 -38 75 -64 75 -59 0 5 -34 39 -75
76 -41 37 -75 64 -75 59z"/>
<path d="M1511 2378 c-5 -13 -34 -41 -65 -63 -67 -48 -70 -68 -21 -135 35 -48
79 -92 60 -60 -5 8 -24 34 -42 58 -18 24 -33 52 -33 62 0 17 39 50 59 50 6 0
34 -29 62 -65 28 -36 54 -65 58 -65 4 0 26 16 50 36 43 37 47 57 17 91 -6 7
-20 24 -31 39 -61 80 -97 96 -114 52z m112 -72 c15 -19 27 -43 27 -54 0 -21
-39 -52 -65 -52 -15 0 -84 86 -85 107 0 6 14 20 32 31 38 24 53 19 91 -32z"/>
<path d="M7385 2335 c-32 -46 -44 -71 -40 -85 7 -23 149 -120 175 -120 11 0
31 18 47 41 15 22 39 54 52 70 13 17 21 32 19 35 -3 2 -23 -21 -44 -52 -50
-73 -66 -81 -104 -54 -33 24 -35 31 -19 63 12 21 11 21 -8 5 -11 -10 -25 -18
-32 -18 -17 0 -71 39 -71 51 0 7 56 87 77 109 7 7 72 -32 78 -48 3 -8 -4 -25
-15 -37 -21 -23 -25 -35 -11 -35 8 0 61 70 61 82 0 12 -77 58 -97 58 -15 0
-36 -20 -68 -65z"/>
<path d="M2552 2284 c10 -10 20 -16 22 -13 3 3 -5 11 -17 18 -21 13 -21 12 -5
-5z"/>
<path d="M7222 2256 c3 -13 239 -196 252 -196 4 0 6 6 6 13 0 12 -240 197
-255 197 -4 0 -5 -6 -3 -14z"/>
<path d="M2600 2241 c0 -5 7 -12 16 -15 14 -5 15 -4 4 9 -14 17 -20 19 -20 6z"/>
<path d="M1612 2129 c-65 -49 -91 -74 -84 -81 8 -8 30 5 74 39 101 80 107 82
140 42 18 -22 31 -30 38 -23 6 6 -4 24 -29 52 -21 23 -40 42 -42 42 -2 0 -46
-32 -97 -71z"/>
<path d="M2688 2173 c13 -13 28 -23 35 -23 7 0 3 6 -8 12 -11 6 -27 16 -35 22
-9 6 -5 1 8 -11z"/>
<path d="M7197 2100 c-25 -27 -51 -50 -59 -50 -7 0 -24 9 -38 20 -29 23 -40
25 -39 8 1 -21 239 -210 255 -204 17 6 19 26 3 26 -15 0 -136 97 -148 118 -7
12 1 28 31 64 22 26 45 48 52 48 21 0 146 -110 146 -128 0 -10 -11 -33 -25
-52 -37 -50 -30 -51 15 -3 22 23 40 51 40 62 0 26 -136 141 -167 141 -13 0
-38 -19 -66 -50z"/>
<path d="M1855 2120 c-3 -5 -1 -10 4 -10 6 0 11 5 11 10 0 6 -2 10 -4 10 -3 0
-8 -4 -11 -10z"/>
<path d="M1718 2016 c-78 -64 -104 -96 -79 -96 13 0 181 140 181 151 0 23 -23
11 -102 -55z"/>
<path d="M1760 1960 c-46 -43 -81 -82 -77 -87 10 -9 16 -5 108 76 41 36 74 69
74 75 0 25 -27 9 -105 -64z"/>
<path d="M7035 2020 c3 -5 8 -10 11 -10 2 0 4 5 4 10 0 6 -5 10 -11 10 -5 0
-7 -4 -4 -10z"/>
<path d="M1880 2003 c0 -5 18 -27 40 -48 22 -21 40 -43 40 -48 0 -4 -34 -40
-75 -79 -72 -68 -87 -88 -65 -88 17 0 160 142 160 158 0 8 -22 37 -50 64 -27
27 -50 46 -50 41z"/>
<path d="M6040 1986 c-19 -12 -58 -33 -87 -47 -29 -13 -52 -28 -53 -32 0 -11
44 3 48 14 2 5 8 9 14 9 10 0 128 70 128 76 0 8 -17 2 -50 -20z"/>
<path d="M7090 1970 c0 -9 37 -45 128 -127 62 -55 57 -19 -5 40 -92 87 -123
110 -123 87z"/>
<path d="M6988 1879 c-32 -28 -58 -59 -58 -69 0 -18 62 -80 80 -80 5 0 32 20
60 45 28 25 56 45 64 45 14 0 56 -41 56 -55 0 -5 -24 -34 -52 -64 -57 -59 -39
-51 30 14 23 22 42 47 42 55 0 23 -62 80 -87 80 -12 0 -43 -18 -68 -40 -52
-45 -49 -44 -76 -30 -34 19 -23 54 32 104 28 25 47 46 43 46 -5 0 -35 -23 -66
-51z"/>
<path d="M5775 1846 c-49 -24 -103 -48 -119 -55 -16 -6 -26 -14 -23 -18 6 -5
26 3 165 68 67 31 96 50 75 49 -4 -1 -48 -20 -98 -44z"/>
<path d="M1994 1841 c-42 -26 -124 -117 -124 -138 0 -24 7 -33 58 -72 46 -36
51 -50 24 -74 -33 -30 -63 -17 -133 57 -11 11 -19 15 -19 9 0 -16 112 -113
130 -113 15 0 230 208 230 222 0 8 -105 109 -124 120 -7 4 -26 -1 -42 -11z
m96 -48 c22 -21 40 -43 40 -49 0 -12 -123 -136 -142 -143 -11 -4 -98 78 -98
93 0 18 124 136 142 136 10 0 36 -17 58 -37z"/>
<path d="M6865 1760 c-3 -5 -1 -10 6 -10 7 0 48 -37 91 -82 98 -105 108 -80
11 28 -63 69 -94 87 -108 64z"/>
<path d="M5540 1740 c-25 -10 -40 -19 -34 -19 14 -1 84 28 84 34 0 6 3 7 -50
-15z"/>
<path d="M6793 1707 c-28 -23 -52 -46 -52 -51 -1 -5 20 -33 47 -63 26 -30 59
-69 73 -85 15 -19 31 -28 38 -24 8 5 -6 27 -41 68 -29 33 -61 71 -72 85 l-19
24 44 45 c54 55 49 55 -18 1z"/>
<path d="M5380 1691 c-30 -10 -82 -26 -115 -36 -33 -10 -55 -20 -49 -22 7 -2
39 5 73 17 33 11 68 20 78 20 10 0 36 9 58 19 51 24 27 25 -45 2z"/>
<path d="M3747 1649 c7 -7 15 -10 18 -7 3 3 -2 9 -12 12 -14 6 -15 5 -6 -5z"/>
<path d="M2412 1634 c-16 -11 -20 -22 -16 -42 5 -26 -30 -142 -44 -142 -3 0
-23 12 -45 27 -30 21 -38 32 -34 49 4 22 3 23 -26 7 -29 -15 -30 -16 -11 -29
107 -73 114 -83 93 -143 -6 -17 -8 -39 -5 -48 6 -14 9 -15 20 -2 13 14 106
289 106 314 0 22 -15 25 -38 9z"/>
<path d="M5148 1623 c7 -3 16 -2 19 1 4 3 -2 6 -13 5 -11 0 -14 -3 -6 -6z"/>
<path d="M6645 1590 c-79 -59 -95 -75 -95 -93 0 -15 -5 -18 -23 -14 -14 4 -39
-4 -72 -24 -28 -17 -62 -38 -78 -47 -15 -9 -25 -21 -23 -27 11 -27 178 -265
186 -265 16 0 12 20 -11 51 -11 16 -17 33 -14 39 3 6 -1 13 -10 16 -19 8 -115
147 -115 168 0 16 83 66 111 66 23 0 109 -127 109 -160 0 -13 5 -20 13 -18 23
8 19 38 -12 93 -17 30 -30 55 -28 55 2 0 27 -23 55 -51 46 -46 53 -49 74 -38
38 20 128 93 128 104 0 28 -121 175 -143 175 -7 0 -30 -14 -52 -30z m113 -67
c52 -66 58 -79 44 -99 -14 -20 -79 -64 -95 -64 -20 0 -127 125 -127 150 0 22
75 80 104 80 14 0 39 -23 74 -67z"/>
<path d="M3983 1593 c9 -2 25 -2 35 0 9 3 1 5 -18 5 -19 0 -27 -2 -17 -5z"/>
<path d="M4955 1590 c-28 -7 -28 -8 10 -8 22 0 54 4 70 8 28 7 28 8 -10 8 -22
0 -53 -4 -70 -8z"/>
<path d="M4053 1583 c9 -2 23 -2 30 0 6 3 -1 5 -18 5 -16 0 -22 -2 -12 -5z"/>
<path d="M4785 1570 l-40 -7 50 -1 c28 -1 57 3 65 8 18 11 -11 11 -75 0z"/>
<path d="M4393 1553 c64 -2 170 -2 235 0 64 1 11 3 -118 3 -129 0 -182 -2
-117 -3z"/>
<path d="M2145 1470 c-3 -5 -2 -10 4 -10 5 0 13 5 16 10 3 6 2 10 -4 10 -5 0
-13 -4 -16 -10z"/>
<path d="M2443 1397 c-70 -101 -71 -108 -28 -142 20 -15 39 -25 42 -22 2 3 -7
13 -21 22 -14 10 -26 24 -26 32 0 18 91 151 108 158 18 7 106 -48 110 -69 4
-20 -81 -154 -104 -163 -8 -3 -21 0 -29 7 -9 7 -18 11 -21 8 -3 -3 12 -15 32
-27 20 -12 40 -18 44 -14 20 22 170 254 170 263 0 19 -16 10 -38 -20 -24 -32
-59 -40 -68 -15 -4 8 -11 15 -18 15 -6 0 -22 9 -36 20 -44 34 -62 26 -117 -53z"/>
<path d="M6234 1330 c-72 -42 -79 -53 -64 -91 7 -17 23 -37 36 -46 22 -14 28
-12 89 19 l67 33 19 -24 c25 -30 24 -58 -2 -71 -11 -7 -18 -14 -16 -17 10 -10
67 28 67 45 0 19 -41 80 -62 94 -16 9 -45 1 -78 -22 -40 -28 -66 -32 -84 -15
-30 30 -19 51 47 89 34 19 55 35 47 35 -8 1 -38 -13 -66 -29z"/>
<path d="M2646 1264 c-50 -81 -58 -126 -23 -132 15 -3 16 -1 7 15 -10 15 -4
31 33 93 41 69 47 75 75 74 44 -2 102 -40 102 -67 0 -27 -74 -145 -96 -154 -9
-3 -32 2 -51 11 -20 9 -37 15 -40 13 -2 -3 20 -16 48 -31 49 -24 54 -25 70
-10 26 24 99 150 99 171 0 22 -117 93 -153 93 -19 0 -33 -15 -71 -76z"/>
<path d="M2912 1223 c-28 -54 -61 -117 -74 -140 -22 -39 -21 -62 1 -49 5 4 26
39 47 79 20 39 51 99 70 133 31 55 34 74 13 74 -4 0 -30 -44 -57 -97z"/>
<path d="M6555 1253 c-19 -10 -25 -18 -16 -21 7 -2 23 5 34 17 25 25 22 26
-18 4z"/>
<path d="M6055 1234 c-27 -14 -39 -22 -25 -18 56 15 83 10 99 -18 13 -23 14
-31 3 -48 -7 -11 -10 -20 -6 -20 5 0 45 19 52 25 10 8 -53 105 -67 105 -3 0
-28 -12 -56 -26z"/>
<path d="M5766 1216 c-50 -18 -91 -37 -93 -43 -5 -15 111 -296 125 -301 18 -6
15 31 -8 89 -23 58 -20 68 36 88 l37 13 60 -61 c39 -40 64 -58 70 -52 6 6 -6
28 -35 63 -45 53 -46 53 -30 85 15 31 14 35 -13 85 -26 49 -43 69 -55 67 -3 0
-45 -15 -94 -33z m118 -49 c24 -58 16 -77 -37 -92 -19 -5 -39 -13 -43 -17 -4
-5 -17 -8 -29 -8 -16 0 -27 13 -44 56 -14 31 -20 59 -15 64 16 15 109 49 129
47 13 -1 26 -18 39 -50z"/>
<path d="M2982 1203 c-17 -7 -82 -148 -82 -178 0 -12 6 -27 13 -32 21 -16 139
-64 145 -59 4 5 -48 30 -115 57 -28 11 -29 38 -3 72 l20 25 55 -23 c31 -12 58
-25 62 -29 3 -3 16 -6 29 -6 16 0 26 10 38 40 9 22 16 47 16 56 0 9 -30 29
-74 49 -75 36 -81 37 -104 28z m93 -35 c47 -20 55 -27 55 -49 0 -15 -8 -37
-19 -50 l-18 -23 -59 26 c-65 28 -78 51 -50 94 20 29 22 29 91 2z"/>
<path d="M5966 1191 c-24 -26 -21 -40 27 -127 44 -80 74 -101 100 -75 8 8 5
11 -10 11 -22 0 -53 38 -53 64 0 9 18 25 40 36 53 27 51 31 -6 11 -45 -16 -46
-16 -65 8 -21 26 -25 67 -7 73 8 3 9 6 1 11 -6 4 -18 -2 -27 -12z"/>
<path d="M3212 1113 c-17 -6 -42 -57 -42 -86 0 -20 10 -29 49 -46 27 -11 54
-21 59 -21 5 0 15 -6 21 -14 10 -11 9 -22 -4 -47 -16 -30 -19 -31 -63 -26
l-47 5 47 -15 c25 -9 53 -13 61 -10 17 6 48 92 41 111 -3 7 -33 24 -67 38 -68
26 -78 42 -48 79 16 20 22 22 42 12 45 -21 88 -35 99 -31 5 1 -22 15 -62 29
-40 14 -79 24 -86 22z"/>
<path d="M6303 1106 c-13 -6 -23 -14 -23 -18 0 -12 6 -10 42 12 34 21 19 26
-19 6z"/>
<path d="M5170 1042 c-41 -9 -80 -20 -86 -24 -8 -5 -7 -22 3 -60 8 -29 24 -98
37 -153 27 -115 16 -110 152 -79 89 19 100 32 83 101 -7 27 -15 53 -19 58 -4
6 -10 34 -13 63 -8 72 -26 107 -57 109 -14 1 -59 -6 -100 -15z m99 -16 c16
-19 26 -102 13 -110 -7 -4 -2 -15 13 -30 25 -25 45 -111 29 -125 -14 -12 -121
-34 -136 -28 -8 3 -20 31 -27 63 -12 52 -12 59 4 70 15 11 15 13 -4 19 -22 7
-45 70 -39 108 5 34 124 61 147 33z"/>
<path d="M3403 1028 c-13 -16 -53 -156 -53 -185 0 -13 8 -23 23 -27 35 -9 38
-7 17 14 -19 19 -19 20 0 76 11 31 20 65 20 74 0 9 6 24 13 34 13 17 17 17 76
2 75 -19 86 -20 45 -2 -50 22 -129 30 -141 14z"/>
<path d="M6137 1024 c-16 -9 -27 -18 -24 -20 3 -3 22 4 43 15 21 12 32 21 24
21 -8 -1 -28 -8 -43 -16z"/>
<path d="M5475 1020 c-16 -6 -12 -9 20 -11 33 -3 41 -9 49 -32 7 -20 7 -34 -2
-47 -11 -18 -9 -20 13 -20 20 0 25 5 25 25 0 14 -7 41 -14 60 -12 29 -20 35
-43 34 -15 0 -37 -4 -48 -9z"/>
<path d="M5378 993 c-10 -2 -18 -14 -18 -25 0 -25 26 -119 46 -166 15 -34 15
-34 67 -27 28 4 66 13 82 21 l30 13 -40 -6 c-22 -3 -50 -9 -61 -14 -14 -5 -28
-3 -38 4 -19 15 -34 77 -17 77 19 0 12 17 -8 23 -29 7 -40 76 -16 94 19 13 9
16 -27 6z"/>
<path d="M3606 974 c-4 -11 -17 -52 -28 -93 -20 -78 -18 -121 7 -121 11 0 14
7 9 25 -3 14 -3 36 0 50 8 30 31 32 116 8 42 -11 64 -13 71 -6 14 14 30 84 24
104 -6 19 -66 39 -140 46 -44 5 -53 3 -59 -13z m153 -26 c20 -7 22 -13 17 -41
-11 -52 -24 -59 -87 -46 -66 15 -80 29 -68 71 5 18 13 35 19 38 11 7 75 -5
119 -22z"/>
<path d="M4595 980 c-4 -6 8 -10 27 -10 52 0 58 -13 58 -121 0 -128 9 -189 27
-189 12 0 14 25 13 143 -1 78 -1 148 -1 155 1 7 16 12 41 12 22 0 40 5 40 10
0 6 -40 10 -99 10 -56 0 -103 -4 -106 -10z"/>
<path d="M4096 929 c-9 -17 -13 -36 -9 -42 7 -11 5 -143 -2 -168 -3 -8 1 -22
7 -31 14 -17 98 -32 98 -17 0 5 -15 9 -34 9 -44 0 -48 12 -40 114 4 56 11 85
22 94 12 9 13 15 4 24 -7 7 -12 20 -12 30 0 28 -17 21 -34 -13z"/>
<path d="M3846 938 c-7 -21 -36 -194 -36 -213 0 -9 5 -15 12 -13 10 4 41 137
51 217 3 18 -22 27 -27 9z"/>
<path d="M3903 933 c4 -6 29 -13 57 -17 33 -4 53 -13 57 -23 3 -9 -2 -58 -12
-110 -16 -89 -15 -119 4 -97 8 10 26 89 36 165 8 53 -1 63 -60 73 -22 3 -51 9
-64 13 -15 4 -22 2 -18 -4z"/>
<path d="M3130 906 c0 -2 7 -7 16 -10 8 -3 12 -2 9 4 -6 10 -25 14 -25 6z"/>
<path d="M4778 898 c-27 -9 -28 -11 -27 -86 2 -116 8 -136 44 -140 27 -3 28
-2 12 10 -13 10 -21 36 -28 88 -12 95 -7 120 26 120 14 0 25 5 25 10 0 12 -16
12 -52 -2z"/>
<path d="M4887 903 c41 -5 48 -26 48 -140 0 -57 4 -83 12 -83 19 0 25 35 17
112 -10 110 -15 118 -66 116 -37 -1 -38 -2 -11 -5z"/>
<path d="M5485 900 c-16 -7 -17 -9 -3 -9 9 -1 20 4 23 9 7 11 7 11 -20 0z"/>
<path d="M4256 874 c-9 -23 -7 -77 3 -92 5 -8 38 -16 82 -20 l74 -7 3 -38 c2
-26 -1 -39 -12 -43 -9 -3 -13 -10 -10 -15 3 -5 13 -5 25 1 15 9 19 21 19 64 0
32 -5 58 -13 64 -7 6 -42 12 -77 14 l-65 3 0 43 c0 42 -17 58 -29 26z"/>
<path d="M3440 801 c0 -5 14 -11 31 -15 44 -8 55 -8 44 3 -14 12 -75 22 -75
12z"/>
<path d="M3625 751 c11 -4 45 -11 75 -15 40 -4 49 -3 33 4 -13 5 -46 12 -75
15 -35 4 -46 2 -33 -4z"/>
<path d="M4898 673 c7 -3 16 -2 19 1 4 3 -2 6 -13 5 -11 0 -14 -3 -6 -6z"/>
<path d="M4293 663 c15 -2 39 -2 55 0 15 2 2 4 -28 4 -30 0 -43 -2 -27 -4z"/>
</g>
</svg>
